<svg xmlns="http://www.w3.org/2000/svg" viewBox="0 0 250 250"><g transform="matrix(0.625,0,0,0.625,0,0)"><g transform="matrix(2,0,0,2,0,0)"><defs><style>.a{fill:#FFC077;}.b{fill:#166ae8;}.c{fill:#0400BF;}.d{fill:none;stroke:#0400BF;stroke-linecap:round;stroke-linejoin:round;stroke-width:0.638px;}</style></defs><path class="a" d="M160.76,74.27c1.4-2.437,1.025-5.816-3.094-3.952L153,58l-8.459-1.937L139.362,58s-2.632,3.775-2.632,5.311.364,4.63.364,4.63a9.3,9.3,0,0,0-1.042,3.565c.087,1.366,2.184,8.727,3.608,9.6s4.659.371,4.659.371l.6,3.178-5.784.893s-.483,5.333,3.264,5.547,18.365-4.06,18.365-4.06l-4.432-2-.587-8.045S159.364,76.707,160.76,74.27Zm-23.085-6.109a1.734,1.734,0,0,1,.215-1.109s.268-.3,1.162-.049A3.8,3.8,0,0,1,140.7,68.33a8.386,8.386,0,0,1-2.33.8C138.071,69.112,137.756,68.832,137.675,68.161Zm3.38,8.439c-.8-.2-1.693-1.882-1.693-1.882l2.827-.166,3.9.194C143.877,76.851,141.855,76.8,141.055,76.6ZM146,69.49c-.272-.053-.443-.276-.682-.871s.417-1.423.417-1.423a7.663,7.663,0,0,0,.913,0c.508-.03,2.568,1.732,2.568,1.732A11.87,11.87,0,0,1,146,69.49Z"></path><path class="b" d="M44.567,64.643S40,66.4,39.094,67.737s-2.905,1.711-1.438,4.852c0,0-1.808,2.039-.587,4.16,0,0,10.027-6.6,12.319-6.93s13.643,6.135,18.54,9.507l4.97,2.051s3.475-3.544,3.541-7.537a27.27,27.27,0,0,0-.8-7.07s-.87.172-1.391.339A1.8,1.8,0,0,1,73.118,67L70.179,74s-4.3-4.917-8.148-7.125S54.183,58.822,44.567,64.643Z"></path><path class="b" d="M87.459,85.355h-.281a3.583,3.583,0,0,0-3.572,3.867l.434,5.441a5.632,5.632,0,0,1,3.419-3.209Z"></path><path class="b" d="M35.633,90.191s5.43-8.574,14.349-10.157,10.345,7.277,10.345,7.277L61.911,97.2l4.152.625-.235,3.82,2.722-1.4,1.984,3.422s1.154-2.559,2.015-2.79a11.932,11.932,0,0,0,4-2.359c1.365-1.219,5.827-4.074,7.487-3.856a6.343,6.343,0,0,1,4.227-3.537,19.035,19.035,0,0,0,6.364-3.2l4.1,10.366L97.245,99.5s.781,2.863-.9,2.936.123,4.893-3.926,5.454c0,0-.736-.112-1.118.884s-4.919,7.063-6.375,7.854-11.073,9.285-17.636,10.224S45.8,109.709,45.8,109.709s-9.257-5-10.486-10.31A16.719,16.719,0,0,1,35.633,90.191Z"></path><path class="b" d="M36.636,151.792l1.446,3.856s25.294,2.118,30.779,2.436,19.986-4.424,19.986-4.424a15.09,15.09,0,0,0,.658-4.56s-20.291,1.958-27.664,2.124Z"></path><path class="b" d="M86.42,115.472s1.523,17.723,1.788,19.246,2.381,9.3,2.379,10.364.127,2.805-1.082,4.018l-.658,4.56,2.486,8.532s4.192.257,5.738-.247.856-1.621.856-1.621l-.656-5.623a28.662,28.662,0,0,0,1.36-5.6,7.4,7.4,0,0,0-2.139-5.128,16.664,16.664,0,0,0,.391-8c-.784-4.983-2.9-7.685-3.559-12.976a103.145,103.145,0,0,0-2.76-12.62Z"></path><path class="b" d="M139.362,58s1.93-.784,2.768-1.118A12.722,12.722,0,0,0,145.1,58.4c.712.042,4.656-.548,4.656-.548a5.62,5.62,0,0,1,1.66,3.042c.458,2.074,2.681,2.323,3.073,2.47s.18,2.362.18,2.362l-.336,2.6a7.341,7.341,0,0,0,.866,2.406l.538.66s-1.159,1.743-1.631,1.723-2.433.453-2.654,1.013.165.781,1.313.757a4.892,4.892,0,0,0,2.972-1.575,31.769,31.769,0,0,0,1.927-3s2.427-.457,2.506-.5.936,1.013.936,1.013a7.882,7.882,0,0,0,1.1-2.66c-.063-.745-.089-2.868-.089-2.868l.457-2.628a5.381,5.381,0,0,0,2.563-.035,2.617,2.617,0,0,0,1.137-3.725,2.061,2.061,0,0,0,.872-1.871,2.478,2.478,0,0,0-2.114-2.771c-1.284-.088-.589-.058-.589-.058a2.344,2.344,0,0,0-1.96-2.388c-2.03-.341-4.611.036-4.71,3.351,0,0,.04-.974-1.886-.3a5.174,5.174,0,0,0-2.5-1.429c-1.113-.049-3.821-1.041-5.127-.978a24.323,24.323,0,0,0-5.523,1.463C141.713,54.388,139.362,58,139.362,58Z"></path><path class="b" d="M155.91,77.722a22.481,22.481,0,0,0,2.468,1.148,6.5,6.5,0,0,0,1.172.215l.1-1.07a7.04,7.04,0,0,1-1.714-.454c-.695-.322-1.14-.571-1.14-.571h-1.051Z"></path><path class="a" d="M82.248,48.88s-1.036-5.767-2.2-7.461c0,0-10.96-3.5-13.039-1.793s-3.759,4.04-3.739,6.565-.389,6.183-.389,6.183-2.708-5.946-4.282-3.956a8.548,8.548,0,0,0-1.679,5.648,17.262,17.262,0,0,0,.885,1.745S60,57.749,61.239,57.726l-2.207,6.917S66.4,70.4,67.21,70.75,70.179,74,70.179,74L73.118,67a4.9,4.9,0,0,0,3.85-1.282c1.493-1.583,2.49-5.064,3.462-6.353a10.041,10.041,0,0,0,1.16-6.124C81.23,51.884,82.248,48.88,82.248,48.88ZM69.423,51.1c1.1-.628,4.557,0,4.557,0A7.462,7.462,0,0,1,73.548,53a1.094,1.094,0,0,1-.28.061l-.842-.318C71.946,52.534,69.423,51.1,69.423,51.1ZM73.636,61.74c-.868-.192-2.809-3.013-2.809-3.013l6.447,1.19S74.5,61.933,73.636,61.74Zm6.85-7.674c-.232.4-.784.212-.784.212l-.873-.342-1.015-.45-.454-1.464s.892.023,1.507.035a7.993,7.993,0,0,1,1.755.408A6.4,6.4,0,0,1,80.486,54.066Z"></path><polygon class="a" points="95.321 89.269 98.604 97.729 101.275 99.006 103.942 99.446 105.394 99.446 106.794 100.308 108.999 100.796 110.557 99.85 110.557 98.397 111.845 97.649 112.238 96.308 110.393 90.716 109.212 88.907 106.388 88.599 95.321 89.269"></polygon><polygon class="a" points="127.173 94.182 122.801 99.155 120.328 99.835 117.988 99.802 116.75 99.579 115.424 100.1 113.47 100.178 112.287 99.133 112.509 97.895 111.525 97.06 111.396 95.857 113.824 91.372 115.108 90.012 117.563 90.181 125.174 92.915 127.173 94.182"></polygon><path class="a" d="M123.062,98.858s16.029,20.653,21.769,22.648,12.918-3.377,12.918-3.377l-6.943-11.857-3.117.868L127.173,94.182Z"></path><path class="a" d="M123.641,114.724s-1.427,15.864-1.928,16.916-2.816,5.545-3.207,7.541-1.85,9.089.238,23.739c0,0,4.427.309,5.3.217,0,0-1.557-9.691-.214-15.063s2.928-12.288,6.338-15.668l.537-4.719-1.2-12.215Z"></path><path class="c" d="M147.939,107.89l2.867-1.618-1.362-2.325a.318.318,0,0,1,.077-.41l4.675-3.709.705-3.7a.319.319,0,1,1,.626.119l-.566,2.976L157.9,96.89a.319.319,0,1,1,.4.5l-8.162,6.475,8.545,14.59,11.421-8.676c1.665-2.494,4.249-8.079,4.237-12.638-.012-4.39-9.943-10.089-12.526-11.5a1.475,1.475,0,0,0-1.233-.086c-2.712,1.025-13.453,4.948-16.492,4-2.48-.778-4.441-3.232-5.366-4.585a1.482,1.482,0,0,0-1.675-.571c-2.474.787-8.33,2.67-8.9,3.043-.72.474-2.764,4.773-2.764,4.773l-.211.7-.259.327s9.7,6.595,12.789,8.375S147.939,107.89,147.939,107.89Z"></path><path class="c" d="M158.778,119.179a.314.314,0,0,1-.193.065.334.334,0,0,1-.062-.006.322.322,0,0,1-.213-.152l-.561-.957a.214.214,0,0,1-.009-.027c-1.952.911-8.883,3.956-12.567,3.079-4.015-.956-19.7-19.707-21.863-22.265l-2.908,9.931a.614.614,0,0,0,.316.723l1.695.845,1.411-5.067a.319.319,0,0,1,.614.171l-1.565,5.62c0,.317.009.837.046,1.7.106,2.409,4.254,5.455,4.254,5.455s.889.2.885,4.383,2.643,5.013,2.643,5.013,8.394.449,13,.61,20.413-.711,20.413-.711a13.238,13.238,0,0,0,3.4-4.119c1.18-2.257,1.878-10.355,2.044-12.481Z"></path><path class="d" d="M69.423,50.844a12.447,12.447,0,0,1,4.557.254"></path><path class="c" d="M72.594,50.98s-.486,1.185-.168,1.766l.842.318a2.374,2.374,0,0,0,.648-1.9Z"></path><path class="d" d="M77.36,52.018a10.985,10.985,0,0,1,3.315.356"></path><path class="c" d="M79.267,52.309s-.485,1.184-.168,1.765l.842.318a2.372,2.372,0,0,0,.648-1.9Z"></path><path class="c" d="M69.211,47.842a6.293,6.293,0,0,1,5.27-.106c.213.113.56.27.362.893s-.24.666-1.094.555a7.8,7.8,0,0,0-2.711-.319C69.423,49.232,68.218,48.3,69.211,47.842Z"></path><line class="d" x1="75.64" y1="48.467" x2="75.27" y2="49.295"></line><path class="c" d="M82.248,48.88a3.124,3.124,0,0,0-2.851-.24c-.23.071-.6.163-.519.811s.113.7.973.747.563-.42,1.448-.135a4.1,4.1,0,0,1,.527.147C82.163,50.361,82.6,49.107,82.248,48.88Z"></path><line class="d" x1="78.124" y1="49.146" x2="78.335" y2="50.028"></line><path class="d" d="M77.344,50a4.028,4.028,0,0,0,.335,3.429s1.29,2.422.977,3.236-2.813,1.217-2.813,1.217"></path><path class="d" d="M75.894,56.8a4.338,4.338,0,0,0-1.293.16"></path><path class="d" d="M70.8,58.728s1.618,2.876,3.157,3.095S77.3,59.885,77.3,59.885s-6.071-1-6.54-1.313a.718.718,0,0,1-.358-.746"></path><path class="d" d="M57.91,49.3s-1.545,3.511-.765,5.359a4.636,4.636,0,0,0,4.886,3.033"></path><path class="d" d="M61.06,57.739a59.431,59.431,0,0,1-2.205,6.9"></path><path class="d" d="M60.493,50.74c-1.872-.264-3.217,3.228.3,5.071"></path><path class="d" d="M79.716,40.763s2.661,4.846,2.532,8.436a36.14,36.14,0,0,0-.706,3.8c-.083,1.166.712,2.808-1.345,6.829-2.884,5.64-3.036,6.508-5.463,7.2S66.025,63.814,64.842,62"></path><path class="c" d="M57.975,50s.835-1.872,1.982-1.49c1.046.347,2.128,2.6,2.576,4.081a.57.57,0,0,0,.546.408h1a.568.568,0,0,0,.548-.725c-.333-1.159-.9-3.37-.583-4.064.434-.956,1.423.348,1.891-3.337s1.546-4.8,3.973-3.9,6.606,2.428,8.219,2.283,2.851-3.746,3.339-5.556-.528-1.541-1.435-.567c0,0,.246-3.876-1.323-4.461s-2.387,2.207-2.387,2.207.6-2.734-1.048-2.474-2.317,2.185-3.234,2.234-6.562-1.366-10.311,2.639S55.905,45.336,57.975,50Z"></path><polygon class="c" points="68.333 65.189 71.372 70.719 73.097 66.991 68.333 65.189"></polygon><path class="d" d="M73.1,66.991,70.179,74s2.022,2.986,2.248,4.989"></path><line class="d" x1="63.275" y1="54.278" x2="64.641" y2="54.278"></line><line class="d" x1="63.626" y1="55.501" x2="64.397" y2="55.501"></line><path class="c" d="M60.236,59.86s-8.163-1.565-12.153.607a52.28,52.28,0,0,0-8.356,6.146s1.779,1.1,6.859-2.544S59.1,65.189,59.1,65.189l.862-3.589Z"></path><path class="d" d="M40.6,66.256s-3.538,2.8-3.535,4.367.816,1.731.573,2.405-1.73,1.692-.573,3.721c0,0,9.725-7.574,13.769-7S67.39,80.5,72.9,81.377c0,0-.552-6.618-5.757-10.658s-8.286-6.076-8.286-6.076"></path><path class="d" d="M73.118,63.087a2.116,2.116,0,0,0,1.351.358"></path><path class="d" d="M64.842,66.512s3.221,4.72,4.26,6.077"></path><path class="d" d="M37.069,76.749s-1.5,8.807-1.434,12.714-4.957,13,10.163,20.246c0,0,13.381,14.284,16.585,15.852s3.608,2.506,9.96-.33,15.635-9.809,19.373-17.242c0,0,2.476-.7,3.038-1.421s.362-3.279.835-3.869,1.817,1.013,1.656-3.2l1.472-1.481-4.025-10.37a9.594,9.594,0,0,1-2.633,1.933c-1.749.915-8.111,2.582-8.019,5.081,0,0-4.678.811-7.5,3.872s-3.74,1.525-4.793,3.019a71.8,71.8,0,0,0-3.449,6.731"></path><path class="d" d="M57.289,81.948a13.135,13.135,0,0,1,2.668,3.824C60.77,88.566,61.911,97.2,61.911,97.2l4.152.625-6.5,7.752"></path><path class="d" d="M66.063,97.825s-.527,11.387-1.854,15.881c0,0,2.666-6.83,4.652-9.748"></path><path class="d" d="M65.828,101.645a11.717,11.717,0,0,1,2.722-1.4c.488.048,1.984,3.422,1.984,3.422"></path><path class="d" d="M72.9,81.377a13.834,13.834,0,0,0,3.651-9.168,28.214,28.214,0,0,0-1.137-5.218"></path><path class="d" d="M40.861,70.375S49.693,65.013,53.4,65.5s-6.9,5.215-6.9,5.215"></path><path class="d" d="M61.342,93.212s1.026-5.135,1.814-4.937-.214,6.543-.214,6.543"></path><path class="d" d="M67.289,126.852s8.047-5.628,9.264-8.283"></path><path class="d" d="M97.245,99.5s-3.474-5.042-3.606-3.854.974,3.854.974,3.854"></path><path class="d" d="M75.894,68.613a6.31,6.31,0,0,0,3.637,2.711c2.323.5,9.022.461,7.856,13.216l.135,6.914"></path><path class="d" d="M36.634,102.4s.109,17.872-1.309,26.257-5.093,21,1.45,22.3,17.118.779,19.35.469"></path><path class="d" d="M86.551,115.472s.358,16.727,3.043,25.5-.182,8.772-7.341,8.951"></path><path class="d" d="M90.587,110.378s4.244,19.781,5.272,22,2.155,8.275.657,11.514c0,0,4.208,3.355.755,10.809a42.453,42.453,0,0,1,.658,5.8"></path><path class="c" d="M68.049,86.768a1.152,1.152,0,0,1-.968-1.53,15.366,15.366,0,0,0,.847-3.366,12.434,12.434,0,0,0-.209-4.179.587.587,0,0,1,.479-.737h0a.583.583,0,0,1,.567.231,8.309,8.309,0,0,1,1.293,4.922,9.06,9.06,0,0,1-.856,4.018,1.155,1.155,0,0,1-1.153.641Z"></path><line class="d" x1="67.928" y1="86.132" x2="67.121" y2="88.491"></line><path class="c" d="M75.845,85.49a1.151,1.151,0,0,1-1.253-1.306,15.353,15.353,0,0,0,.16-3.467,12.454,12.454,0,0,0-1.037-4.054.588.588,0,0,1,.322-.818h0a.588.588,0,0,1,.6.114,8.3,8.3,0,0,1,2.246,4.566,9.06,9.06,0,0,1-.039,4.108,1.153,1.153,0,0,1-1,.857Z"></path><line class="d" x1="75.6" y1="84.892" x2="75.278" y2="87.364"></line><path class="d" d="M36.775,150.955a8.995,8.995,0,0,0,1.307,4.693S80.5,157.37,88.847,153.66a24.325,24.325,0,0,0,.658-4.9"></path><path class="c" d="M38.082,155.648l-.557,7.365s27.173,1.646,36.125.478a146.792,146.792,0,0,1,18.063-1.062l-2.866-8.769c-11.864,2.448-24.716,2.689-39.879,2.387C44.721,155.963,39.88,155.864,38.082,155.648Z"></path><polygon class="c" points="51.389 151.729 37.372 154.2 36.774 151.224 43.016 151.706 51.389 151.729"></polygon><path class="d" d="M54.122,125.31s4.4,4.748,4.785,10.129-2.276,7.986-2.276,7.986"></path><path class="d" d="M82.812,125.816s-1.292,1.036-1.526,7.073c-.283,7.319,3.574,9.2,3.574,9.2"></path><path class="c" d="M36.636,113.052a21.217,21.217,0,0,0,3.376,1.6c1.573.53,12.207,2.182,14.477,3.832L46.256,110.2s-8.234-5.787-9.62-7.165Z"></path><path class="d" d="M65.538,72.589s6.274,5.773,7.36,8.788"></path><path class="d" d="M95.321,89.269s9.121-.36,11.812-.631,2.754.863,3.752,3.343,1.43,4.01,1.342,4.885-1.184,1.485-1.954,1.589a3.053,3.053,0,0,1-2.755.551s-3.8-.536-4.466-1.181-.348-1.98.29-2.1,1.908.481,1.943,1.276"></path><path class="d" d="M106.26,90.716a2.24,2.24,0,0,1,2.092,1.534c.377,1.5.308,5.966-.834,6.756"></path><path class="d" d="M110.031,98.633s1.042-.249.545-2.6c-.553-2.623-.5-4.935-2.019-5.838"></path><path class="d" d="M106.388,95.9s-1.78.582-2.446-.429"></path><path class="d" d="M104.739,94.244A6.43,6.43,0,0,1,102.6,95.9c-.979.3-3.314.736-3.881,0"></path><path class="d" d="M98.6,97.536s2.811,1.814,4.19,1.964,1.739-.606,3.314.489,3.426,1.055,4.352,0c.254-.29.544-1.161-.187-1.534"></path><path class="d" d="M111.91,97.55a2.459,2.459,0,0,0,.994.548,2.6,2.6,0,0,0,2.275.733s3.265-.083,3.892-.564.486-1.64-.042-1.8-1.66.222-1.767.891"></path><path class="d" d="M125.354,93.046s-6.592-2.453-8.841-2.943-2.412.461-3.5,2.462c-.459.845-.815,1.556-1.075,2.152"></path><path class="d" d="M117.049,91.944a1.906,1.906,0,0,0-1.917,1.094c-.465,1.229-.841,5.015.047,5.793"></path><path class="d" d="M113.091,98.271s-.856-.311-.208-2.254c.723-2.164.9-4.124,2.275-4.74"></path><path class="d" d="M116.437,96.317s1.448.664,2.11-.125"></path><path class="d" d="M117.992,95.075a5.461,5.461,0,0,0,1.649,1.61c.8.354,2.731.944,3.282.377"></path><path class="d" d="M112.9,98.1c-.655.244-.494,1.008-.307,1.279.68.982,2.241,1.2,3.679.423s2.626.22,3.807.227a7.8,7.8,0,0,0,2.991-1.079"></path><polyline class="d" points="57.289 47.197 13.976 47.197 13.976 115.472 36.364 115.472"></polyline><polyline class="d" points="106.388 100.308 106.388 115.472 91.971 115.472"></polyline><polyline class="d" points="82.205 47.197 106.388 47.197 106.388 88.599"></polyline><path class="d" d="M15.454,47.2A51.512,51.512,0,0,1,16.4,60.936H48.083"></path><path class="d" d="M103.558,47.2s.349,7.088.969,13.739H79.856"></path><path class="d" d="M21.474,60.936s-.929,13.982-.678,17.878,1.095,10.033.965,14.341a39.8,39.8,0,0,0,.491,7.645"></path><circle class="d" cx="22.149" cy="102.458" r="1.396"></circle><path class="d" d="M18.11,49.587s24.626.6,26.457.635,10.91,0,10.91,0"></path><path class="d" d="M16.393,53.936a90.467,90.467,0,0,1,9.875-.668c2.894.15,18.762.368,21.815.325"></path><path class="d" d="M20.753,57.739s28.478.087,31.456.087"></path><path class="d" d="M83.459,51.961s16.309.235,18.55.054"></path><path class="d" d="M104.251,57.739s-16.944.307-18.584,0"></path><path class="d" d="M103.024,40.227s24.891.308,32.251,0,11.08-.319,11.08-.319"></path><path class="d" d="M113.412,35.7s29.232.2,32.943.221,7.862.1,7.862.1"></path><line class="d" x1="16.393" y1="121.506" x2="32.238" y2="121.506"></line><line class="d" x1="95.142" y1="121.506" x2="120.552" y2="121.506"></line><line class="d" x1="5.572" y1="145.993" x2="16.393" y2="145.993"></line><line class="d" x1="21.513" y1="145.993" x2="29.145" y2="145.993"></line><line class="d" x1="10.982" y1="139.635" x2="24.315" y2="139.635"></line><line class="d" x1="176.143" y1="145.993" x2="182.819" y2="145.993"></line><line class="d" x1="187.94" y1="145.993" x2="195.572" y2="145.993"></line><line class="d" x1="173.902" y1="139.635" x2="190.742" y2="139.635"></line><path class="d" d="M97.2,139.181s4.382-5.2,10.714-5.2c5.659,0,10.714,3.683,10.714,3.683"></path><path class="d" d="M96.883,134.718a18.179,18.179,0,0,1,11.033-4.24c7.782,0,11.989,4,11.989,4"></path><path class="d" d="M193.215,126.353c-.891-.1-6.234.1-9.084,0s-9.8,0-9.8,0l-2.315-11.4s4.637-.332,7.289-.4a106.648,106.648,0,0,1,12.152.5l-2.728,11.1"></path><path class="d" d="M181.979,114.4s3.594-14.9,3.086-24.935c-.247-4.869-.744-11.468.965-11.469,2.853,0,2.961,7.351,2.847,13.357-.183,9.609-4.722,23.188-4.722,23.188"></path><path class="d" d="M185.431,114.536s4.53-9.676,5.284-15.378c1.041-7.874,4.857-7.356,2.732,1.632-2.131,9.015-5.826,13.746-5.826,13.746"></path><path class="d" d="M178.989,114.549s-1.4-11.247-1.947-17.911.283-9.728.058-15.732c-.207-5.493,3.014-5.653,3.4,2.905s.546,9.278.713,13.487-.333,17.251-.333,17.251"></path><path class="d" d="M174.74,114.735c-.944-3.777-2.425-9.818-3.314-14.024-1.383-6.541-.949-9.686-1.932-15.614-.9-5.423,2.275-5.988,3.735,2.453s1.715,9.134,2.413,13.288c.469,2.8,1.147,9.619,1.539,13.767"></path><path class="d" d="M130.7,127.687a18.5,18.5,0,0,0-.537,4.719s-6.2,8.7-6.661,19.055.537,11.676.537,11.676"></path><path class="d" d="M132.416,132.966s-3.177,5.391-4.736,7.322"></path><path class="d" d="M142.025,128.233a18.492,18.492,0,0,1-.461,4.365,58.137,58.137,0,0,0-.619,10.856"></path><path class="d" d="M137.115,153.72s8.161,4.626,9.261,5.263l1.277,4.154"></path><path class="d" d="M140.64,157.826a45.5,45.5,0,0,0,5.736,1.157"></path><path class="d" d="M164.118,127.586a20.63,20.63,0,0,1,0,3.6s6.538,6.177,9.784,13.713,6.573,17.288,6.573,17.288"></path><path class="d" d="M156.089,133.994s6.616,6.167,10.061,8.391"></path><ellipse class="d" cx="145.497" cy="132.359" rx="0.879" ry="2.359"></ellipse><path class="d" d="M123.641,113.041s-1.46,14.356-1.679,17.437-3.332,3.364-4.277,14.186a63.947,63.947,0,0,0,1.059,18.256"></path><line class="d" x1="23.807" y1="125.19" x2="9.979" y2="131.412"></line><line class="d" x1="24.533" y1="126.804" x2="10.706" y2="133.026"></line><path class="d" d="M25.455,124.448l.181-.081a.885.885,0,0,1,1.17.444h0a.885.885,0,0,1-.444,1.17l-.406.183"></path><polyline class="d" points="8.682 131.996 6.843 133.794 9.408 133.61"></polyline><path class="d" d="M20.17,129.557a61.812,61.812,0,0,1-4.883,6.038c-1.382,1.207,12.779.6,12.779.6l6.184-9.347-6.858-.2"></path><path class="d" d="M18.2,133.794l1.8-.608a.955.955,0,0,1,.875.138h0a.956.956,0,0,0,1.221-.07l.116-.108a.957.957,0,0,1,1.177-.1l.5.328a.956.956,0,0,0,1.194-.117l.044-.043a.957.957,0,0,1,1.249-.079l.92.7"></path><path class="d" d="M21.548,130.872l1.487-.7a.635.635,0,0,1,.766.178h0a.634.634,0,0,0,.913.083l.8-.7a.636.636,0,0,1,.949.131l.673,1.028a.636.636,0,0,0,.861.195l1.247-.757"></path><path class="d" d="M147.627,107.14a25,25,0,0,1,2.092,2.747"></path><path class="d" d="M139.131,85.543s4.848-.557,5.784-.893"></path><line class="d" x1="144.319" y1="81.472" x2="145.344" y2="85.701"></line><path class="d" d="M162.489,62.638a7.961,7.961,0,0,1-.4,2.514c-.427,1.18-3.511,3.544-4.571,3.648-.531.051-.994,1.074-1.511,2.1a4.084,4.084,0,0,1-2.155,2.146c-3.444.72-2.685,2.1-1.087,1.839s3.582-1.4,4.9-4.571c0,0,2.839-1.392,3.442.511s-.907,6.739-5.718,6.145l.975,8.032,3.285,1.231"></path><path class="d" d="M162.091,65.152a5.7,5.7,0,0,1-.036,2.659,4.23,4.23,0,0,1-1.99,2.062"></path><path class="d" d="M162.055,67.811s.834.959-.947,3.018"></path><path class="d" d="M155.6,71.091c-1.586-.947-1.319-3.519-1.094-4.671s1.17-3.09-1.233-3.719-1.9-3.7-3.063-4.614-2.87.64-5.1.317-1.91-2.179-3.334-1.363a7.5,7.5,0,0,1-2.406.955s4.017-8.385,13.739-4.53"></path><path class="d" d="M143.5,55.539c2.56-2.733,6.185-2.81,10.284-1.936"></path><path class="d" d="M146.661,56.435s6.074-3.683,7.978-2.647a6.563,6.563,0,0,1,1.114,1.06s1.071-.544,1.548.1"></path><path class="d" d="M158.683,55.738s-2.031-.517-2.02,1.11a1.865,1.865,0,0,0,1.508,1.7,1.2,1.2,0,0,0-.885,1.684c.551,1.336,2.853.481,2.853.481s1.021,2.641,4.559,1.946a2.262,2.262,0,1,0-.636-4.466"></path><path class="d" d="M157.81,55.669a3.082,3.082,0,0,1,2.745-3.881c2.481-.458,4.545,1.07,3.908,3.521"></path><path class="d" d="M164.571,54.213s2.4.05,2.563,2.222-.854,2.478-.854,2.478"></path><path class="d" d="M150.206,58.087a5.382,5.382,0,0,1,3.016-2.418"></path><path class="d" d="M154.491,69.49s1.11-2.3,2.679-2.42,2.706-2.221,3.59-3.276"></path><path class="d" d="M156.663,57.476s-2.67,1.014-3.441,2.139"></path><path class="d" d="M154.8,65.152a11.253,11.253,0,0,0,2.917-2.162c1.224-1.331,1.652-1.218,1.652-1.218"></path><path class="d" d="M157.379,71.3s1.821-.327,1.984.878a3.114,3.114,0,0,1-1.88,2.8"></path><path class="d" d="M139.362,58s-2.886,3.435-2.632,6.848c0,0,.31,2.414.364,3.093s-1.406,2.7-.955,4.931a27.8,27.8,0,0,0,2.088,5.474c1.135,2.759,1.842,3.52,4.828,3.2a14.737,14.737,0,0,0,4.634-1.148"></path><path class="c" d="M139.663,57.461s-1.481.469-1.874-.714a2.2,2.2,0,0,1,.409-2.065s-1.435-.521-.517-2.524,3.041-.721,3.041-.721.166-1.842,1.7-2.073,2.5,1.672,2.5,1.672,1.517-1.99,2.76-.6.789,2.017.789,2.017a16.215,16.215,0,0,0-6.233,1.761A7.433,7.433,0,0,0,139.663,57.461Z"></path><circle class="c" cx="156.234" cy="75.292" r="0.855"></circle><path class="d" d="M156.792,76.99a7.348,7.348,0,0,0,1.586.722,8.755,8.755,0,0,1,.923.3.538.538,0,0,1,.336.6h0a.538.538,0,0,1-.624.433,9.824,9.824,0,0,1-3.623-2.074"></path><path class="c" d="M156.762,78.015a3.664,3.664,0,0,0,1.3,2.364c.372.286.668.494.9.643a.84.84,0,0,1,.284,1.11h0A.839.839,0,0,1,158,82.4c-.2-.15-.409-.321-.616-.5a7.185,7.185,0,0,1-1.783-3.224V77.287Z"></path><path class="d" d="M136.73,64.844s.664-.981,1.431-.82a5.6,5.6,0,0,1,1.846,1.128"></path><path class="d" d="M144.05,65.326a6.932,6.932,0,0,1,3.226-1.187,3.694,3.694,0,0,1,2.482,1.591"></path><path class="d" d="M137.675,66.687a4.341,4.341,0,0,1,3.024,1.336"></path><path class="c" d="M138.961,67.724c-.071.652-.446,1.145-.838,1.1s-.651-.6-.579-1.256.446-.826.837-.783S139.032,67.073,138.961,67.724Z"></path><path class="d" d="M145.322,67.052s2.595.357,3.753,1.7"></path><path class="c" d="M146.608,68.089c-.071.651-.446,1.144-.837,1.1s-.651-.605-.58-1.256.446-.826.837-.783S146.679,67.437,146.608,68.089Z"></path><path class="d" d="M141.834,65.925s.485,1.064.265,1.518-1.747,2.672-2.092,3.386,1.075,1.89,1.075,1.89"></path><path class="d" d="M142.189,71.976a3.665,3.665,0,0,1,1.3.483"></path><path class="d" d="M139.052,74.437a24.32,24.32,0,0,0,3.137.54,32.17,32.17,0,0,0,4.161-.517s-2.038,2.33-4.161,2.371S139.052,74.437,139.052,74.437Z"></path><path class="d" d="M140.267,77.346a1.937,1.937,0,0,0,1.466,1.015,4.4,4.4,0,0,0,2.053-.6"></path><path class="c" d="M139.052,74.423A7.931,7.931,0,0,1,141.4,73.7c.7.04,4.342.863,4.342.863l-3.86.274Z"></path><polyline class="c" points="145.27 83.99 146.35 81.161 144.319 81.472 144.915 83.931"></polyline></g></g></svg>